# xmcd
#
# Track frame offsets: 
#        300
#        23562
#        41628
#        62719
#        85558
#        101029
#        117968
#        138645
#        162137
#        180989
#        201386
#        218737
#        232302
#        248376
#        263818
#
# Disc length: 3724 seconds
#
# Revision: 0
# Processed by: cddbd v1.5.2PL0 Copyright (c) Steve Scherf et al.
# Submitted via: ExactAudioCopy v0.95a5
#
DISCID=cb0e880f
DTITLE=Ibrahim Ferrer - The Cuban Collection
DYEAR=2004
DGENRE=Other
TTITLE0=En que parte de Cuba nació el Son
TTITLE1=Estoy seco y me quiero Mojar
TTITLE2=cucuruchito de coco
TTITLE3=El son de la santiaguera
TTITLE4=Manana me voy a Sibanicu
TTITLE5=Ahora no puedo
TTITLE6=Un son para el guayabero
TTITLE7=Mi tonada Montuna
TTITLE8=Esto se baila y se toca
TTITLE9=Compositor Confundido
TTITLE10=La Chica del Granizado
TTITLE11=Une Fuerza Immensa
TTITLE12=Viene de la tierra caliente
TTITLE13=Santa Cecilia
TTITLE14=El platanal de Bartolo
EXTD=
EXTT0=
EXTT1=
EXTT2=
EXTT3=
EXTT4=
EXTT5=
EXTT6=
EXTT7=
EXTT8=
EXTT9=
EXTT10=
EXTT11=
EXTT12=
EXTT13=
EXTT14=
PLAYORDER=
